<?xml version="1.0" encoding="UTF-8"?>
<svg xmlns="http://www.w3.org/2000/svg" viewBox="0 0 287 220" width="287" height="220">
<path d="M124.5 19C127.26 20.73 128.69 24.97 130.06 27.77C132.94 33.67 136.58 39.16 139.5 45C140.68 47.36 144.25 51.77 141.66 54.16C140.18 55.51 129.82 55.37 127.51 54.99C126.29 54.79 125.53 53.8 124.18 54.01C121.63 54.41 115.03 66.62 115 69.17C115.61 69.78 116.22 70.38 116.83 70.99C128.72 70.99 140.61 70.99 152.5 70.99C157.62 76.17 162.77 88.03 166.06 94.77C167.46 97.63 169.82 100.64 170.32 103.84C170.79 106.82 168.53 109.65 167.18 112.01C165.63 114.71 163.76 120.53 160.44 121.6C157.89 122.43 153.86 121.67 151.17 121.67C144.28 121.67 137.39 121.67 130.5 121.67C123.83 121.67 117.17 121.67 110.5 121.67C108.49 121.67 104.59 122.4 103 121.17C102.13 118.76 105.86 114.31 106.94 112.1C108.14 109.65 108.97 106.87 111.34 105.18C114.38 103.01 119.36 104.33 122.83 104.33C131.64 104.33 143.05 105.69 151.5 104C151.84 101.52 148.93 99 148.06 96.77C147.16 94.47 145.32 90.1 143.11 88.72C140.63 87.16 134.42 88.33 131.5 88.33C121.5 88.33 111.5 88.33 101.5 88.33C97.53 88.33 90.3 89.8 87.33 86.83C87.33 82.1 93.39 73.56 95.82 69.32C102.48 57.72 108.7 45.61 114.82 33.66C116.66 30.06 120.66 19.77 124.5 19ZM155.67 157.5C147.6 159.11 148.73 153.88 143.66 150.18C141.68 148.73 138.91 148.33 137.17 146.67C137.44 144.94 137.72 143.22 138 141.5C143.98 138.51 157.85 151.62 155.67 157.5ZM115.02 142.33C115.02 167.06 115.02 191.78 115.02 216.5C112.61 218.83 107.46 218.79 107.46 214.5C107.46 196.79 107.67 178.93 107.67 161.17C107.67 157.19 106.42 144.35 108.5 141.67C110.57 140.9 113.24 141.08 115.02 142.33ZM20.67 219.94C20.11 219.94 19.56 219.94 19 219.94C18.78 219.44 10.27 217.67 8.55 216.61C6.55 215.38 0.44 208.78 0.06 208.67C0.06 207.67 0.06 206.67 0.06 205.67C1.98 204.78 3.91 203.89 5.83 203C8.68 205.85 10.92 209.87 15.23 210.94C21.45 212.47 32.72 210.78 31.32 201.84C30.59 197.18 24.42 195.74 20.56 194.94C9.87 192.72 -1.12 187.47 2.06 174.56C4.72 163.78 18.94 161.65 27.56 164.94C31.52 166.45 37 170.14 37 174.83C35.17 175.78 33.33 176.72 31.5 177.67C29.47 175.64 28.08 173.39 25.44 172.06C20.22 169.45 7.64 171.14 9.01 179.49C9.74 183.96 15.51 185.18 19.1 186.06C29.44 188.61 41.01 193.27 38.99 206.16C38.02 212.32 33.49 215.55 28.1 217.6C26.42 218.25 21.38 218.35 20.67 219.94ZM69.23 163.4C71.88 162.89 74.7 163.45 77.23 163.94C89.55 166.31 96.16 176.83 97.99 188.51C98.49 191.72 97.67 194.87 97.06 197.9C94.83 209.04 86.41 217.23 75.16 218.99C58.11 221.66 43.8 204.06 46.34 187.84C48.31 175.26 56.55 165.84 69.23 163.4ZM133.33 194.83C132.37 196.85 133.84 200.11 134.95 201.89C138.48 207.51 144.44 212.81 151.82 211.66C160.38 210.32 159.66 207.87 165.83 204C167.56 204.94 169.28 205.89 171 206.83C170.98 208.46 170.08 209.1 169.18 210.34C164.28 217.05 154.48 220.59 146.23 218.94C126.37 214.97 119.81 191.66 129.18 175.34C137.13 161.49 153.66 160.42 165.66 169.18C172.08 173.87 175.15 184.69 174.66 192.16C174.39 196.08 167.45 194.67 164.83 194.67C157.72 194.67 150.61 194.67 143.5 194.67C140.23 194.67 136.52 194.2 133.33 194.83ZM191.04 190.71C190.93 199.36 190.82 208.01 190.7 216.67C190.52 217 190.35 217.33 190.17 217.67C187.66 218.6 184.01 218.52 183.4 215.44C182.7 211.96 183.33 207.72 183.33 204.17C183.33 195.17 183.33 186.17 183.33 177.17C183.33 174.98 182.66 166.22 184.17 165C185.11 164.24 186.07 164.7 187.17 164.67C192.48 164.52 189.47 166.72 191.5 169.33C195.53 166.8 198.76 164.36 203.56 163.4C205.99 162.91 208.58 163.47 210.9 163.94C227.2 167.2 228.33 181.93 228.33 195.83C228.33 201.17 228.33 206.5 228.33 211.83C228.33 214.07 228.93 216.63 226.83 218C225 217.83 223.17 217.67 221.33 217.5C220.35 214.86 221 212.23 221 209.5C221 201.86 222.14 183.72 217.82 177.68C206.77 162.2 190.28 174.59 191.04 190.71ZM286.94 186C286.94 188.67 286.94 191.33 286.94 194C277.74 194.8 267.99 194.67 258.5 194.67C254.65 194.67 249.1 193.66 245.5 195C245.23 196.97 246.22 199.06 246.94 200.9C250.31 209.52 259.63 212.7 268.1 210.94C272.65 209.99 274.71 205.9 278.5 204C280.22 205.06 281.94 206.11 283.67 207.17C283.24 209.16 281.6 210.9 280.17 212.33C272.83 219.67 261.65 220.57 252.33 216.83C239.6 211.72 235.62 196.12 238.06 183.9C241.61 166.14 263.07 157.21 277.5 168.67C280.66 171.18 283.82 175.34 284.94 179.23C285.35 180.67 285.85 185.51 286.94 186ZM69.56 171.06C45.94 175.79 51.1 214.99 74.49 211.32C93.71 208.31 96.07 177.38 77.23 171.94C74.75 171.22 72.25 170.52 69.56 171.06ZM133.72 186.97C135.26 188.07 138.93 187.39 140.83 187.39C146.83 187.39 152.83 187.39 158.83 187.39C160.38 187.39 165.74 188.13 166.28 186.67C166.42 183.97 165.32 181.24 163.84 178.99C155.05 165.56 134.05 170.45 133 186.17C133.24 186.43 133.48 186.7 133.72 186.97ZM245.72 186.67C246.26 188.13 251.62 187.39 253.17 187.39C259.17 187.39 265.17 187.39 271.17 187.39C273.07 187.39 276.74 188.07 278.28 186.97C278.52 186.7 278.76 186.43 279 186.17C276.08 180.04 276.12 174.99 268.44 172.06C258.97 168.45 245.14 175.38 245.72 186.67Z" fill="#ffffff" fill-rule="evenodd" stroke="#ffffff" stroke-width="0.25" stroke-linejoin="round"/>
<path d="M97.03 0.06C102.01 0.06 106.99 0.06 111.97 0.06C112.38 0.54 112.78 1.02 113.19 1.5C113.18 8.57 104.69 20 101.34 26.48C92.42 43.75 82.86 60.93 73.96 78.22C71.33 83.33 68.64 88.14 65.93 93.16C64.8 95.25 62.27 98.13 62.1 100.51C61.99 101.97 62.91 102.44 63.5 103.6C70.67 105.01 79.18 103.81 86.5 103.81C89.06 103.81 93.78 103.56 93.51 107.5C93.34 109.98 91.46 112.36 90.18 114.33C88.89 116.32 88.38 119.56 86.18 120.97C82.44 123.38 69.71 122.1 64.83 122.1C60.03 122.1 52.56 123.28 49.01 119.54C47.46 117.9 40.83 106.1 40.85 104.18C40.87 101.81 47.14 92.25 48.64 89.52C53.35 80.94 58.22 72.31 62.65 63.52C64.5 59.84 66.89 53.19 69.83 50.33C72.17 46 74.5 41.67 76.83 37.33C79.17 33 81.5 28.67 83.83 24.33C86.17 20 88.5 15.67 90.83 11.33C92.9 7.57 94.97 3.81 97.03 0.06Z" fill="#b7d66a" fill-rule="evenodd" stroke="#b7d66a" stroke-width="0.25" stroke-linejoin="round"/>
<path d="M166.28 186.67C165.74 188.13 160.38 187.39 158.83 187.39C152.83 187.39 146.83 187.39 140.83 187.39C138.93 187.39 135.26 188.07 133.72 186.97C144.57 186.87 155.42 186.77 166.28 186.67ZM245.72 186.67C256.57 186.77 267.43 186.87 278.28 186.97C276.74 188.07 273.07 187.39 271.17 187.39C265.17 187.39 259.17 187.39 253.17 187.39C251.62 187.39 246.26 188.13 245.72 186.67ZM191.04 190.71C192.39 193.73 191.4 206.41 191.4 210.5C191.4 212.22 192.04 215.63 190.7 216.67C190.82 208.01 190.93 199.36 191.04 190.71Z" fill="#dedfdd" fill-rule="evenodd" stroke="#dedfdd" stroke-width="0.25" stroke-linejoin="round"/>
</svg>